<svg width="41" height="37" viewBox="0 0 41 37" fill="none" xmlns="http://www.w3.org/2000/svg">
<path d="M40.2577 17.3778C39.7196 14.94 37.4918 13.3572 35.2806 13.8455C34.5288 14.0113 33.8784 14.4001 33.3643 14.9308C30.3902 12.7694 26.327 11.3432 21.7904 11.0723L23.9629 2.03056L30.4049 3.57286C30.5118 5.33441 31.9712 6.72926 33.7586 6.72926C35.546 6.72926 37.1233 5.22385 37.1233 3.36464C37.1233 1.50543 35.6178 0 33.7586 0C32.4116 0 31.2544 0.79233 30.7163 1.93476L23.727 0.261639C23.1779 0.130812 22.6251 0.46801 22.4924 1.01896L20.0877 11.0244C15.0277 11.0502 10.4616 12.5151 7.18342 14.859C7.02311 14.7097 6.84988 14.5696 6.66009 14.4499C4.75107 13.2319 2.1142 13.9505 0.770886 16.0548C-0.572429 18.1591 -0.115435 20.853 1.79358 22.0728C1.90599 22.1447 2.02205 22.2092 2.13999 22.2681C2.06444 22.738 2.02023 23.2153 2.02023 23.7017C2.02023 30.7037 10.1704 36.379 20.2222 36.379C30.2741 36.379 38.4242 30.7037 38.4242 23.7017C38.4242 23.2116 38.38 22.7288 38.3026 22.2534C39.8523 21.3523 40.6981 19.39 40.254 17.3797L40.2577 17.3778ZM10.8964 20.7646C10.8964 19.1688 12.19 17.8772 13.7839 17.8772C15.3778 17.8772 16.6714 19.1707 16.6714 20.7646C16.6714 22.3584 15.3778 23.652 13.7839 23.652C12.19 23.652 10.8964 22.3584 10.8964 20.7646ZM26.9406 29.8837C26.0543 30.6908 23.6035 32.5684 20.014 32.6016C19.9808 32.6016 19.9495 32.6016 19.9163 32.6016C16.2807 32.6016 13.7968 30.7037 12.892 29.8819C12.6027 29.6184 12.5806 29.1706 12.8441 28.8795C13.1076 28.5902 13.5554 28.5681 13.8465 28.8316C14.6352 29.5484 16.8096 31.2123 20.0011 31.1809C23.1024 31.1515 25.2196 29.5281 25.988 28.8316C26.2773 28.5681 26.7269 28.5902 26.9904 28.8795C27.2539 29.1688 27.2318 29.6184 26.9425 29.8819L26.9406 29.8837ZM26.5924 23.652C24.9966 23.652 23.7049 22.3584 23.7049 20.7646C23.7049 19.1707 24.9985 17.8772 26.5924 17.8772C28.1863 17.8772 29.4799 19.1707 29.4799 20.7646C29.4799 22.3584 28.1863 23.652 26.5924 23.652Z" fill="black"/>
</svg>
